<svg xmlns="http://www.w3.org/2000/svg" xmlns:xlink="http://www.w3.org/1999/xlink" viewBox="0 0 1199.47 1200">
  <defs>
    <style>
      .cls-1 {
        opacity: 0.43;
        fill: url(#linear-gradient);
      }

      .cls-2 {
        fill: #eaefea;
        stroke-width: 21px;
      }

      .cls-2, .cls-3, .cls-6 {
        stroke: #362d42;
        stroke-miterlimit: 10;
      }

      .cls-3, .cls-6 {
        fill: none;
      }

      .cls-4 {
        fill: url(#linear-gradient-2);
      }

      .cls-5 {
        fill: #362d42;
      }

      .cls-6 {
        stroke-width: 9px;
      }
    </style>
    <linearGradient id="linear-gradient" x1="106.36" y1="1090.3" x2="1093.64" y2="103.03" gradientUnits="userSpaceOnUse">
      <stop offset="0" stop-color="#d078b1"/>
      <stop offset="1" stop-color="#5294d0"/>
    </linearGradient>
    <linearGradient id="linear-gradient-2" x1="807.61" y1="384.04" x2="807.61" y2="384.04" xlink:href="#linear-gradient"/>
  </defs>
  <title>3D</title>
  <g id="bckgrd">
    <path class="cls-1" d="M1199.73,368.18C1199.73,163,1041.08-3.33,845.38-3.33c-165,0-303.74,118.31-343.14,278.45h0c-99.1,176.3-175.87,178.53-175.87,178.53.08.39.17.77.25,1.15C144,469.77.27,629.86.27,825.16c0,205.18,158.65,371.51,354.35,371.51,139.35,0,259.89-84.35,317.77-207v0l.21-.49c1-2.1,2-4.22,2.91-6.34,15.55-32.36,91.73-172.46,282.79-262.46a344.13,344.13,0,0,0,43.12-18.62l.17-.07c12.25-4.83,21.69-10.4,28.62-16.53C1131.89,619.89,1199.73,502.34,1199.73,368.18Z" transform="translate(-0.27 3.33)"/>
    <path class="cls-2" d="M316,271.61" transform="translate(-0.27 3.33)"/>
    <path class="cls-3" d="M726.44,591.05" transform="translate(-0.27 3.33)"/>
    <path class="cls-4" d="M807.61,384" transform="translate(-0.27 3.33)"/>
    <circle class="cls-5" cx="122.23" cy="123.83" r="9.5"/>
    <circle class="cls-5" cx="203.44" cy="167.62" r="18.71"/>
    <circle class="cls-5" cx="1113.23" cy="87.83" r="2.5"/>
    <circle class="cls-5" cx="1088.66" cy="168.26" r="9.93"/>
    <circle class="cls-5" cx="207.91" cy="1056.8" r="4.46"/>
    <circle class="cls-5" cx="166.23" cy="977.83" r="5.5"/>
    <circle class="cls-5" cx="955.1" cy="1066.16" r="4.9"/>
    <circle class="cls-5" cx="1064.63" cy="951.97" r="7.64"/>
  </g>
  <g id="Layer_5" data-name="Layer 5">
    <g>
      <circle class="cls-5" cx="270.42" cy="602.98" r="31"/>
      <circle class="cls-5" cx="728.69" cy="381.48" r="31"/>
      <circle class="cls-5" cx="950.2" cy="839.75" r="31"/>
      <circle class="cls-5" cx="491.92" cy="1061.26" r="31"/>
      <rect class="cls-6" x="356.08" y="463.53" width="509" height="509" transform="translate(-251.89 340.6) rotate(-25.8)"/>
      <circle class="cls-5" cx="346.2" cy="401.42" r="31"/>
      <circle class="cls-5" cx="804.48" cy="179.92" r="31"/>
      <circle class="cls-5" cx="1025.98" cy="638.19" r="31"/>
      <circle class="cls-5" cx="567.71" cy="859.7" r="31"/>
      <rect class="cls-6" x="431.86" y="261.97" width="509" height="509" transform="translate(-156.63 353.49) rotate(-25.8)"/>
      <line class="cls-6" x1="270.42" y1="602.98" x2="341.22" y2="399.69"/>
      <line class="cls-6" x1="728.69" y1="381.48" x2="799.5" y2="178.18"/>
      <line class="cls-6" x1="950.2" y1="839.75" x2="1021.01" y2="636.46"/>
      <line class="cls-6" x1="491.92" y1="1061.26" x2="562.73" y2="857.97"/>
    </g>
    <rect class="cls-5" x="961" y="341" width="8" height="131" rx="4" ry="4" transform="translate(-81 463.79) rotate(-25.8)"/>
    <rect class="cls-5" x="1008.24" y="377.91" width="8" height="131" rx="4" ry="4" transform="translate(-92.35 488.03) rotate(-25.8)"/>
    <rect class="cls-5" x="311.46" y="680.54" width="8" height="131" rx="4" ry="4" transform="translate(-293.49 214.96) rotate(-25.8)"/>
    <rect class="cls-5" x="336.63" y="809.21" width="8" height="51.03" rx="4" ry="4" transform="translate(-329.58 234.76) rotate(-25.8)"/>
  </g>
</svg>
