<svg xmlns="http://www.w3.org/2000/svg" xmlns:xlink="http://www.w3.org/1999/xlink" viewBox="0 0 1199.47 1200">
  <defs>
    <style>
      .cls-1 {
        opacity: 0.43;
        fill: url(#linear-gradient);
      }

      .cls-2 {
        fill: #eaefea;
      }

      .cls-10, .cls-2, .cls-3, .cls-5, .cls-7, .cls-8, .cls-9 {
        stroke: #362d42;
        stroke-miterlimit: 10;
      }

      .cls-2, .cls-5, .cls-7 {
        stroke-width: 21px;
      }

      .cls-10, .cls-3, .cls-9 {
        fill: none;
      }

      .cls-4 {
        fill: url(#linear-gradient-2);
      }

      .cls-5, .cls-8 {
        fill: #fff;
      }

      .cls-6 {
        fill: #362d42;
      }

      .cls-7 {
        fill: #bfb6cc;
      }

      .cls-8, .cls-9 {
        stroke-width: 11px;
      }

      .cls-10 {
        stroke-width: 8px;
      }
    </style>
    <linearGradient id="linear-gradient" x1="106.36" y1="1090.3" x2="1093.64" y2="103.03" gradientUnits="userSpaceOnUse">
      <stop offset="0" stop-color="#d078b1"/>
      <stop offset="1" stop-color="#5294d0"/>
    </linearGradient>
    <linearGradient id="linear-gradient-2" x1="807.61" y1="384.04" x2="807.61" y2="384.04" xlink:href="#linear-gradient"/>
  </defs>
  <title>graphicDesign</title>
  <g id="bckgrd">
    <path class="cls-1" d="M1199.73,368.18C1199.73,163,1041.08-3.33,845.38-3.33c-165,0-303.74,118.31-343.14,278.45h0c-99.1,176.3-175.87,178.53-175.87,178.53.08.39.17.77.25,1.15C144,469.77.27,629.86.27,825.16c0,205.18,158.65,371.51,354.35,371.51,139.35,0,259.89-84.35,317.77-207v0l.21-.49c1-2.1,2-4.22,2.91-6.34,15.55-32.36,91.73-172.46,282.79-262.46a344.13,344.13,0,0,0,43.12-18.62l.17-.07c12.25-4.83,21.69-10.4,28.62-16.53C1131.89,619.89,1199.73,502.34,1199.73,368.18Z" transform="translate(-0.27 3.33)"/>
    <path class="cls-2" d="M316,271.61" transform="translate(-0.27 3.33)"/>
    <path class="cls-3" d="M726.44,591.05" transform="translate(-0.27 3.33)"/>
    <path class="cls-4" d="M807.61,384" transform="translate(-0.27 3.33)"/>
  </g>
  <g id="Layer_4" data-name="Layer 4">
    <path class="cls-5" d="M1015.07,917.39H302.75c-8.33,0-15.15-7.87-15.15-17.5v-469c0-9.62,6.82-17.5,15.15-17.5h712.32c8.33,0,15.15,7.88,15.15,17.5v469C1030.22,909.52,1023.4,917.39,1015.07,917.39Z" transform="translate(-0.27 3.33)"/>
    <rect class="cls-6" x="330.07" y="454.33" width="10.67" height="132.67" rx="5.33" ry="5.33"/>
    <rect class="cls-6" x="991.3" y="733.32" width="10.67" height="132.67" rx="5.33" ry="5.33"/>
    <rect class="cls-7" x="173.98" y="416.73" width="120.11" height="504" rx="12" ry="12"/>
    <rect class="cls-6" x="991.3" y="641.83" width="10.67" height="39.66" rx="5.33" ry="5.33"/>
    <line class="cls-7" x1="294.09" y1="664.96" x2="173.98" y2="664.96"/>
    <rect class="cls-8" x="784.7" y="274.61" width="42" height="340.48" rx="12" ry="12" transform="translate(225.01 -266.07) rotate(22)"/>
    <path class="cls-9" d="M723.57,637.33l-2.15-36.59a4.26,4.26,0,0,1,5.85-4.2l29.1,11.76a4.25,4.25,0,0,1,1.29,7.08l-26.95,24.83A4.26,4.26,0,0,1,723.57,637.33Z" transform="translate(-0.27 3.33)"/>
    <line class="cls-10" x1="807.34" y1="396.33" x2="840.07" y2="407.67"/>
    <circle class="cls-6" cx="312.08" cy="276.32" r="17.99"/>
    <circle class="cls-6" cx="991.3" cy="180.33" r="17.99"/>
    <circle class="cls-6" cx="201.3" cy="1042.33" r="17.99"/>
    <circle class="cls-6" cx="371.01" cy="285.31" r="8.99"/>
    <circle class="cls-6" cx="726.17" cy="207.31" r="8.99"/>
    <circle class="cls-6" cx="110.73" cy="99.33" r="8.99"/>
    <circle class="cls-6" cx="857.23" cy="1073.16" r="17.16"/>
    <circle class="cls-6" cx="1143.36" cy="807.78" r="9.04"/>
    <circle class="cls-6" cx="58.73" cy="520.67" r="9.04"/>
    <circle class="cls-6" cx="807.34" cy="1121.31" r="8.99"/>
  </g>
</svg>
