<?xml version="1.0" encoding="utf-8"?>
<!-- Generator: Adobe Illustrator 22.0.1, SVG Export Plug-In . SVG Version: 6.00 Build 0)  -->
<svg version="1.1" xmlns="http://www.w3.org/2000/svg" xmlns:xlink="http://www.w3.org/1999/xlink" x="0px" y="0px"
	 viewBox="0 0 1200 1200" style="enable-background:new 0 0 1200 1200;" xml:space="preserve">
<style type="text/css">
	.st0{fill:#FCFCFC;}
</style>
<g id="Layer_2">
	<polygon class="st0" points="1011.4,783.4 119.8,936.8 23.9,1200 304.8,1200 385.9,944 795.2,944 877,1200 1159.5,1200 	"/>
	<path d="M781.4,405.4"/>
</g>
<g id="Layer_3">
	<path class="st0" d="M1011.4,767l-63.8-179.5l-28-78.7L627.6,390.1l29.9,93.5l78.3,244.9H441.3l92.8-289.1l24.8-77.3l-205.5-83.6
		l-30.9,85L141.1,861.8l-15.2,41.8c-5.1,13.9-75.3,29.5-75.3,29.5l166.3-29.5h0L1011.4,767z"/>
</g>
<g id="Layer_4">
	<path class="st0" d="M1023.8,529.7c0,0-85.2-34.4-113.3-66l0,0L750.2,13H442.8l-89.5,245.8l205.5,83.6l7.6-23.6
		c10.7-33.2,17.4-66.6,20.1-100.3h6.4c3.7,40.1,10.2,74.7,19.2,103.5l15.5,48.4L919.5,489l-0.2-0.6L1023.8,529.7z"/>
</g>
</svg>
